<?xml version="1.0" encoding="UTF-8" standalone="no"?>
<!DOCTYPE svg PUBLIC "-//W3C//DTD SVG 1.1//EN"
 "http://www.w3.org/Graphics/SVG/1.1/DTD/svg11.dtd">
<!-- Generated by graphviz version 2.38.0 (20140413.2041)
 -->
<!-- Title: models Pages: 1 -->
<svg width="1050pt" height="479pt"
 viewBox="0.00 0.00 1050.00 479.00" xmlns="http://www.w3.org/2000/svg" xmlns:xlink="http://www.w3.org/1999/xlink">
<g id="graph0" class="graph" transform="scale(1 1) rotate(0) translate(4 475)">
<title>models</title>
<polygon fill="white" stroke="none" points="-4,4 -4,-475 1046,-475 1046,4 -4,4"/>
<g id="clust1" class="cluster"><title>cluster_Unigram</title>
<polygon fill="none" stroke="black" points="8,-125 8,-449 344,-449 344,-125 8,-125"/>
<text text-anchor="middle" x="176" y="-433.8" font-family="Times,serif" font-size="14.00">Unigram</text>
</g>
<g id="clust2" class="cluster"><title>cluster_D</title>
<polygon fill="none" stroke="black" points="206,-133 206,-254 336,-254 336,-133 206,-133"/>
<text text-anchor="middle" x="322.945" y="-238.8" font-family="Times,serif" font-size="14.00">D</text>
</g>
<g id="clust3" class="cluster"><title>cluster_N</title>
<polygon fill="none" stroke="black" points="214,-141 214,-224 328,-224 328,-141 214,-141"/>
<text text-anchor="middle" x="314.945" y="-208.8" font-family="Times,serif" font-size="14.00">N</text>
</g>
<g id="clust4" class="cluster"><title>cluster_MixtureOfUnigrams</title>
<polygon fill="none" stroke="black" points="352,-8 352,-463 689,-463 689,-8 352,-8"/>
<text text-anchor="middle" x="520.5" y="-447.8" font-family="Times,serif" font-size="14.00">MixtureOfUnigrams</text>
</g>
<g id="clust5" class="cluster"><title>cluster_D</title>
<polygon fill="none" stroke="black" points="547,-16 547,-224 681,-224 681,-16 547,-16"/>
<text text-anchor="middle" x="667.945" y="-208.8" font-family="Times,serif" font-size="14.00">D</text>
</g>
<g id="clust6" class="cluster"><title>cluster_N</title>
<polygon fill="none" stroke="black" points="555,-24 555,-117 673,-117 673,-24 555,-24"/>
<text text-anchor="middle" x="659.945" y="-101.8" font-family="Times,serif" font-size="14.00">N</text>
</g>
<g id="clust7" class="cluster"><title>cluster_K</title>
<polygon fill="none" stroke="black" points="441,-136 441,-229 539,-229 539,-136 441,-136"/>
<text text-anchor="middle" x="525.945" y="-213.8" font-family="Times,serif" font-size="14.00">K</text>
</g>
<g id="clust8" class="cluster"><title>cluster_LDA</title>
<polygon fill="none" stroke="black" points="697,-8 697,-463 1034,-463 1034,-8 697,-8"/>
<text text-anchor="middle" x="865.5" y="-447.8" font-family="Times,serif" font-size="14.00">LDA</text>
</g>
<g id="clust9" class="cluster"><title>cluster_D</title>
<polygon fill="none" stroke="black" points="892,-16 892,-347 1026,-347 1026,-16 892,-16"/>
<text text-anchor="middle" x="1012.94" y="-331.8" font-family="Times,serif" font-size="14.00">D</text>
</g>
<g id="clust10" class="cluster"><title>cluster_N</title>
<polygon fill="none" stroke="black" points="900,-24 900,-224 1018,-224 1018,-24 900,-24"/>
<text text-anchor="middle" x="1004.94" y="-208.8" font-family="Times,serif" font-size="14.00">N</text>
</g>
<g id="clust11" class="cluster"><title>cluster_K</title>
<polygon fill="none" stroke="black" points="786,-136 786,-229 884,-229 884,-136 786,-136"/>
<text text-anchor="middle" x="870.945" y="-213.8" font-family="Times,serif" font-size="14.00">K</text>
</g>
<!-- Unigram__946 -->
<g id="node1" class="node"><title>Unigram__946</title>
<polygon fill="none" stroke="black" points="280,-376 280,-412 336,-412 336,-376 280,-376"/>
<text text-anchor="start" x="287.607" y="-390.8" font-family="Times,serif" font-weight="bold" font-size="14.00">β</text>
<text text-anchor="start" x="294.841" y="-392.374" font-family="Times,serif" font-size="14.00"> ∈ ℝ</text>
<text text-anchor="start" x="320.889" y="-398" font-family="Times,serif" font-size="10.00">V</text>
<text text-anchor="start" x="322.75" y="-384.8" font-family="Times,serif" font-size="14.00"> </text>
</g>
<!-- Unigram__966 -->
<g id="node2" class="node"><title>Unigram__966</title>
<path fill="none" stroke="black" d="M254.5,-262.5C254.5,-262.5 311.5,-262.5 311.5,-262.5 317.5,-262.5 323.5,-268.5 323.5,-274.5 323.5,-274.5 323.5,-304.5 323.5,-304.5 323.5,-310.5 317.5,-316.5 311.5,-316.5 311.5,-316.5 254.5,-316.5 254.5,-316.5 248.5,-316.5 242.5,-310.5 242.5,-304.5 242.5,-304.5 242.5,-274.5 242.5,-274.5 242.5,-268.5 248.5,-262.5 254.5,-262.5"/>
<text text-anchor="start" x="261.831" y="-297.3" font-family="Times,serif" font-weight="bold" font-size="14.00">φ</text>
<text text-anchor="start" x="270.841" y="-298.874" font-family="Times,serif" font-size="14.00"> ∈ ℝ</text>
<text text-anchor="start" x="296.889" y="-304.5" font-family="Times,serif" font-size="10.00">V</text>
<text text-anchor="start" x="298.75" y="-291.3" font-family="Times,serif" font-size="14.00"> </text>
<polyline fill="none" stroke="black" points="242.5,-284.5 323.5,-284.5 "/>
<text text-anchor="start" x="250.79" y="-269.3" font-family="Times,serif" font-size="14.00">Dirichlet(</text>
<text text-anchor="start" x="304.607" y="-270.3" font-family="Times,serif" font-weight="bold" font-size="14.00">β</text>
<text text-anchor="start" x="311.669" y="-269.3" font-family="Times,serif" font-size="14.00">)</text>
</g>
<!-- Unigram__946&#45;&gt;Unigram__966 -->
<g id="edge1" class="edge"><title>Unigram__946&#45;&gt;Unigram__966</title>
<path fill="none" stroke="black" d="M303.759,-375.612C300.506,-362.274 295.902,-343.396 291.855,-326.807"/>
<polygon fill="black" stroke="black" points="295.195,-325.73 289.425,-316.844 288.395,-327.389 295.195,-325.73"/>
</g>
<!-- Unigram_w -->
<g id="node3" class="node"><title>Unigram_w</title>
<path fill="lightgrey" stroke="black" d="M234,-149.5C234,-149.5 308,-149.5 308,-149.5 314,-149.5 320,-155.5 320,-161.5 320,-161.5 320,-181.5 320,-181.5 320,-187.5 314,-193.5 308,-193.5 308,-193.5 234,-193.5 234,-193.5 228,-193.5 222,-187.5 222,-181.5 222,-181.5 222,-161.5 222,-161.5 222,-155.5 228,-149.5 234,-149.5"/>
<text text-anchor="start" x="238.68" y="-178.3" font-family="Times,serif" font-size="14.00">w ∈ {1..V}</text>
<polyline fill="none" stroke="black" points="222,-171.5 320,-171.5 "/>
<text text-anchor="start" x="229.907" y="-156.3" font-family="Times,serif" font-size="14.00">Categorical(</text>
<text text-anchor="start" x="298.831" y="-157.3" font-family="Times,serif" font-weight="bold" font-size="14.00">φ</text>
<text text-anchor="start" x="307.669" y="-156.3" font-family="Times,serif" font-size="14.00">)</text>
</g>
<!-- Unigram__966&#45;&gt;Unigram_w -->
<g id="edge2" class="edge"><title>Unigram__966&#45;&gt;Unigram_w</title>
<path fill="none" stroke="black" d="M280.307,-262.467C278.516,-245.157 276.154,-222.322 274.258,-203.99"/>
<polygon fill="black" stroke="black" points="277.713,-203.379 273.203,-193.792 270.75,-204.099 277.713,-203.379"/>
</g>
<!-- Unigram_NOTE -->
<g id="node4" class="node"><title>Unigram_NOTE</title>
<polygon fill="none" stroke="black" points="255.88,-419 16.1198,-419 16.1198,-369 261.88,-369 261.88,-413 255.88,-419"/>
<polyline fill="none" stroke="black" points="255.88,-419 255.88,-413 "/>
<polyline fill="none" stroke="black" points="261.88,-413 255.88,-413 "/>
<text text-anchor="start" x="24.3101" y="-403.8" font-family="Times,serif" font-size="14.00">V: Number of vocabularies</text>
<text text-anchor="start" x="24.3101" y="-389.8" font-family="Times,serif" font-size="14.00">D: Number of documents</text>
<text text-anchor="start" x="24.3101" y="-375.8" font-family="Times,serif" font-size="14.00">N: Number of words for each documents</text>
</g>
<!-- MixtureOfUnigrams__945 -->
<g id="node5" class="node"><title>MixtureOfUnigrams__945</title>
<polygon fill="none" stroke="black" points="623.5,-376 623.5,-412 680.5,-412 680.5,-376 623.5,-376"/>
<text text-anchor="start" x="631.724" y="-390.8" font-family="Times,serif" font-weight="bold" font-size="14.00">α</text>
<text text-anchor="start" x="639.841" y="-392.374" font-family="Times,serif" font-size="14.00"> ∈ ℝ</text>
<text text-anchor="start" x="665.889" y="-398" font-family="Times,serif" font-size="10.00">K</text>
<text text-anchor="start" x="667.75" y="-384.8" font-family="Times,serif" font-size="14.00"> </text>
</g>
<!-- MixtureOfUnigrams__952 -->
<g id="node6" class="node"><title>MixtureOfUnigrams__952</title>
<path fill="none" stroke="black" d="M603,-262.5C603,-262.5 661,-262.5 661,-262.5 667,-262.5 673,-268.5 673,-274.5 673,-274.5 673,-304.5 673,-304.5 673,-310.5 667,-316.5 661,-316.5 661,-316.5 603,-316.5 603,-316.5 597,-316.5 591,-310.5 591,-304.5 591,-304.5 591,-274.5 591,-274.5 591,-268.5 597,-262.5 603,-262.5"/>
<text text-anchor="start" x="611.607" y="-297.3" font-family="Times,serif" font-weight="bold" font-size="14.00">θ</text>
<text text-anchor="start" x="618.841" y="-298.874" font-family="Times,serif" font-size="14.00"> ∈ ℝ</text>
<text text-anchor="start" x="644.889" y="-304.5" font-family="Times,serif" font-size="10.00">K</text>
<text text-anchor="start" x="646.75" y="-291.3" font-family="Times,serif" font-size="14.00"> </text>
<polyline fill="none" stroke="black" points="591,-284.5 673,-284.5 "/>
<text text-anchor="start" x="598.79" y="-269.3" font-family="Times,serif" font-size="14.00">Dirichlet(</text>
<text text-anchor="start" x="652.724" y="-270.3" font-family="Times,serif" font-weight="bold" font-size="14.00">α</text>
<text text-anchor="start" x="660.669" y="-269.3" font-family="Times,serif" font-size="14.00">)</text>
</g>
<!-- MixtureOfUnigrams__945&#45;&gt;MixtureOfUnigrams__952 -->
<g id="edge4" class="edge"><title>MixtureOfUnigrams__945&#45;&gt;MixtureOfUnigrams__952</title>
<path fill="none" stroke="black" d="M648.607,-375.612C646.005,-362.274 642.321,-343.396 639.084,-326.807"/>
<polygon fill="black" stroke="black" points="642.491,-325.989 637.14,-316.844 635.62,-327.33 642.491,-325.989"/>
</g>
<!-- MixtureOfUnigrams_z -->
<g id="node8" class="node"><title>MixtureOfUnigrams_z</title>
<path fill="none" stroke="black" d="M583,-149.5C583,-149.5 655,-149.5 655,-149.5 661,-149.5 667,-155.5 667,-161.5 667,-161.5 667,-181.5 667,-181.5 667,-187.5 661,-193.5 655,-193.5 655,-193.5 583,-193.5 583,-193.5 577,-193.5 571,-187.5 571,-181.5 571,-181.5 571,-161.5 571,-161.5 571,-155.5 577,-149.5 583,-149.5"/>
<text text-anchor="start" x="588.628" y="-178.3" font-family="Times,serif" font-size="14.00">z ∈ {1..K}</text>
<polyline fill="none" stroke="black" points="571,-171.5 667,-171.5 "/>
<text text-anchor="start" x="578.907" y="-156.3" font-family="Times,serif" font-size="14.00">Categorical(</text>
<text text-anchor="start" x="647.607" y="-157.3" font-family="Times,serif" font-weight="bold" font-size="14.00">θ</text>
<text text-anchor="start" x="654.669" y="-156.3" font-family="Times,serif" font-size="14.00">)</text>
</g>
<!-- MixtureOfUnigrams__952&#45;&gt;MixtureOfUnigrams_z -->
<g id="edge5" class="edge"><title>MixtureOfUnigrams__952&#45;&gt;MixtureOfUnigrams_z</title>
<path fill="none" stroke="black" d="M629.083,-262.467C627.134,-245.076 624.56,-222.109 622.5,-203.733"/>
<polygon fill="black" stroke="black" points="625.978,-203.34 621.386,-193.792 619.022,-204.12 625.978,-203.34"/>
</g>
<!-- MixtureOfUnigrams__946 -->
<g id="node7" class="node"><title>MixtureOfUnigrams__946</title>
<polygon fill="none" stroke="black" points="462,-271.5 462,-307.5 518,-307.5 518,-271.5 462,-271.5"/>
<text text-anchor="start" x="469.607" y="-286.3" font-family="Times,serif" font-weight="bold" font-size="14.00">β</text>
<text text-anchor="start" x="476.841" y="-287.874" font-family="Times,serif" font-size="14.00"> ∈ ℝ</text>
<text text-anchor="start" x="502.889" y="-293.5" font-family="Times,serif" font-size="10.00">V</text>
<text text-anchor="start" x="504.75" y="-280.3" font-family="Times,serif" font-size="14.00"> </text>
</g>
<!-- MixtureOfUnigrams__966 -->
<g id="node10" class="node"><title>MixtureOfUnigrams__966</title>
<path fill="none" stroke="black" d="M461.5,-144.5C461.5,-144.5 518.5,-144.5 518.5,-144.5 524.5,-144.5 530.5,-150.5 530.5,-156.5 530.5,-156.5 530.5,-186.5 530.5,-186.5 530.5,-192.5 524.5,-198.5 518.5,-198.5 518.5,-198.5 461.5,-198.5 461.5,-198.5 455.5,-198.5 449.5,-192.5 449.5,-186.5 449.5,-186.5 449.5,-156.5 449.5,-156.5 449.5,-150.5 455.5,-144.5 461.5,-144.5"/>
<text text-anchor="start" x="468.831" y="-179.3" font-family="Times,serif" font-weight="bold" font-size="14.00">φ</text>
<text text-anchor="start" x="477.841" y="-180.874" font-family="Times,serif" font-size="14.00"> ∈ ℝ</text>
<text text-anchor="start" x="503.889" y="-186.5" font-family="Times,serif" font-size="10.00">V</text>
<text text-anchor="start" x="505.75" y="-173.3" font-family="Times,serif" font-size="14.00"> </text>
<polyline fill="none" stroke="black" points="449.5,-166.5 530.5,-166.5 "/>
<text text-anchor="start" x="457.79" y="-151.3" font-family="Times,serif" font-size="14.00">Dirichlet(</text>
<text text-anchor="start" x="511.607" y="-152.3" font-family="Times,serif" font-weight="bold" font-size="14.00">β</text>
<text text-anchor="start" x="518.669" y="-151.3" font-family="Times,serif" font-size="14.00">)</text>
</g>
<!-- MixtureOfUnigrams__946&#45;&gt;MixtureOfUnigrams__966 -->
<g id="edge3" class="edge"><title>MixtureOfUnigrams__946&#45;&gt;MixtureOfUnigrams__966</title>
<path fill="none" stroke="black" d="M490,-271.384C490,-254.994 490,-229.742 490,-208.86"/>
<polygon fill="black" stroke="black" points="493.5,-208.713 490,-198.714 486.5,-208.714 493.5,-208.713"/>
</g>
<!-- MixtureOfUnigrams_w -->
<g id="node9" class="node"><title>MixtureOfUnigrams_w</title>
<path fill="lightgrey" stroke="black" d="M575,-32.5C575,-32.5 653,-32.5 653,-32.5 659,-32.5 665,-38.5 665,-44.5 665,-44.5 665,-74.5 665,-74.5 665,-80.5 659,-86.5 653,-86.5 653,-86.5 575,-86.5 575,-86.5 569,-86.5 563,-80.5 563,-74.5 563,-74.5 563,-44.5 563,-44.5 563,-38.5 569,-32.5 575,-32.5"/>
<text text-anchor="start" x="581.68" y="-71.3" font-family="Times,serif" font-size="14.00">w ∈ {1..V}</text>
<polyline fill="none" stroke="black" points="563,-64.5 665,-64.5 "/>
<text text-anchor="start" x="570.907" y="-44.3" font-family="Times,serif" font-size="14.00">Categorical(</text>
<text text-anchor="start" x="639.831" y="-45.3" font-family="Times,serif" font-weight="bold" font-size="14.00">φ</text>
<text text-anchor="start" x="649.25" y="-49.3" font-family="Times,serif" font-size="14.00"> </text>
<text text-anchor="start" x="648.781" y="-38.5" font-family="Times,serif" font-size="10.00">z</text>
<text text-anchor="start" x="652.669" y="-44.3" font-family="Times,serif" font-size="14.00">)</text>
</g>
<!-- MixtureOfUnigrams_z&#45;&gt;MixtureOfUnigrams_w -->
<g id="edge7" class="edge"><title>MixtureOfUnigrams_z&#45;&gt;MixtureOfUnigrams_w</title>
<path fill="none" stroke="black" d="M618.036,-149.291C617.364,-134.504 616.45,-114.398 615.662,-97.0577"/>
<polygon fill="black" stroke="black" points="619.141,-96.5213 615.19,-86.6905 612.148,-96.8392 619.141,-96.5213"/>
</g>
<!-- MixtureOfUnigrams__966&#45;&gt;MixtureOfUnigrams_w -->
<g id="edge6" class="edge"><title>MixtureOfUnigrams__966&#45;&gt;MixtureOfUnigrams_w</title>
<path fill="none" stroke="black" d="M519.386,-144.432C536.557,-129.2 558.392,-109.829 576.759,-93.536"/>
<polygon fill="black" stroke="black" points="579.237,-96.017 584.395,-86.7626 574.592,-90.7805 579.237,-96.017"/>
</g>
<!-- MixtureOfUnigrams_NOTE -->
<g id="node11" class="node"><title>MixtureOfUnigrams_NOTE</title>
<polygon fill="none" stroke="black" points="599.88,-433 360.12,-433 360.12,-355 605.88,-355 605.88,-427 599.88,-433"/>
<polyline fill="none" stroke="black" points="599.88,-433 599.88,-427 "/>
<polyline fill="none" stroke="black" points="605.88,-427 599.88,-427 "/>
<text text-anchor="start" x="368.31" y="-417.8" font-family="Times,serif" font-size="14.00">K: Number of topics</text>
<text text-anchor="start" x="368.31" y="-403.8" font-family="Times,serif" font-size="14.00">V: Number of vocabularies</text>
<text text-anchor="start" x="368.31" y="-389.8" font-family="Times,serif" font-size="14.00">D: Number of documents</text>
<text text-anchor="start" x="368.31" y="-375.8" font-family="Times,serif" font-size="14.00">N: Number of words for each documents</text>
<text text-anchor="start" x="368.31" y="-361.8" font-family="Times,serif" font-size="14.00">z: Hidden topic for each document</text>
</g>
<!-- LDA__945 -->
<g id="node12" class="node"><title>LDA__945</title>
<polygon fill="none" stroke="black" points="968.5,-376 968.5,-412 1025.5,-412 1025.5,-376 968.5,-376"/>
<text text-anchor="start" x="976.724" y="-390.8" font-family="Times,serif" font-weight="bold" font-size="14.00">α</text>
<text text-anchor="start" x="984.841" y="-392.374" font-family="Times,serif" font-size="14.00"> ∈ ℝ</text>
<text text-anchor="start" x="1010.89" y="-398" font-family="Times,serif" font-size="10.00">K</text>
<text text-anchor="start" x="1012.75" y="-384.8" font-family="Times,serif" font-size="14.00"> </text>
</g>
<!-- LDA__952 -->
<g id="node14" class="node"><title>LDA__952</title>
<path fill="none" stroke="black" d="M940,-262.5C940,-262.5 998,-262.5 998,-262.5 1004,-262.5 1010,-268.5 1010,-274.5 1010,-274.5 1010,-304.5 1010,-304.5 1010,-310.5 1004,-316.5 998,-316.5 998,-316.5 940,-316.5 940,-316.5 934,-316.5 928,-310.5 928,-304.5 928,-304.5 928,-274.5 928,-274.5 928,-268.5 934,-262.5 940,-262.5"/>
<text text-anchor="start" x="948.607" y="-297.3" font-family="Times,serif" font-weight="bold" font-size="14.00">θ</text>
<text text-anchor="start" x="955.841" y="-298.874" font-family="Times,serif" font-size="14.00"> ∈ ℝ</text>
<text text-anchor="start" x="981.889" y="-304.5" font-family="Times,serif" font-size="10.00">K</text>
<text text-anchor="start" x="983.75" y="-291.3" font-family="Times,serif" font-size="14.00"> </text>
<polyline fill="none" stroke="black" points="928,-284.5 1010,-284.5 "/>
<text text-anchor="start" x="935.79" y="-269.3" font-family="Times,serif" font-size="14.00">Dirichlet(</text>
<text text-anchor="start" x="989.724" y="-270.3" font-family="Times,serif" font-weight="bold" font-size="14.00">α</text>
<text text-anchor="start" x="997.669" y="-269.3" font-family="Times,serif" font-size="14.00">)</text>
</g>
<!-- LDA__945&#45;&gt;LDA__952 -->
<g id="edge9" class="edge"><title>LDA__945&#45;&gt;LDA__952</title>
<path fill="none" stroke="black" d="M992.25,-375.612C988.606,-362.274 983.45,-343.396 978.918,-326.807"/>
<polygon fill="black" stroke="black" points="982.208,-325.569 976.196,-316.844 975.455,-327.413 982.208,-325.569"/>
</g>
<!-- LDA__946 -->
<g id="node13" class="node"><title>LDA__946</title>
<polygon fill="none" stroke="black" points="807,-271.5 807,-307.5 863,-307.5 863,-271.5 807,-271.5"/>
<text text-anchor="start" x="814.607" y="-286.3" font-family="Times,serif" font-weight="bold" font-size="14.00">β</text>
<text text-anchor="start" x="821.841" y="-287.874" font-family="Times,serif" font-size="14.00"> ∈ ℝ</text>
<text text-anchor="start" x="847.889" y="-293.5" font-family="Times,serif" font-size="10.00">V</text>
<text text-anchor="start" x="849.75" y="-280.3" font-family="Times,serif" font-size="14.00"> </text>
</g>
<!-- LDA__966 -->
<g id="node17" class="node"><title>LDA__966</title>
<path fill="none" stroke="black" d="M806.5,-144.5C806.5,-144.5 863.5,-144.5 863.5,-144.5 869.5,-144.5 875.5,-150.5 875.5,-156.5 875.5,-156.5 875.5,-186.5 875.5,-186.5 875.5,-192.5 869.5,-198.5 863.5,-198.5 863.5,-198.5 806.5,-198.5 806.5,-198.5 800.5,-198.5 794.5,-192.5 794.5,-186.5 794.5,-186.5 794.5,-156.5 794.5,-156.5 794.5,-150.5 800.5,-144.5 806.5,-144.5"/>
<text text-anchor="start" x="813.831" y="-179.3" font-family="Times,serif" font-weight="bold" font-size="14.00">φ</text>
<text text-anchor="start" x="822.841" y="-180.874" font-family="Times,serif" font-size="14.00"> ∈ ℝ</text>
<text text-anchor="start" x="848.889" y="-186.5" font-family="Times,serif" font-size="10.00">V</text>
<text text-anchor="start" x="850.75" y="-173.3" font-family="Times,serif" font-size="14.00"> </text>
<polyline fill="none" stroke="black" points="794.5,-166.5 875.5,-166.5 "/>
<text text-anchor="start" x="802.79" y="-151.3" font-family="Times,serif" font-size="14.00">Dirichlet(</text>
<text text-anchor="start" x="856.607" y="-152.3" font-family="Times,serif" font-weight="bold" font-size="14.00">β</text>
<text text-anchor="start" x="863.669" y="-151.3" font-family="Times,serif" font-size="14.00">)</text>
</g>
<!-- LDA__946&#45;&gt;LDA__966 -->
<g id="edge8" class="edge"><title>LDA__946&#45;&gt;LDA__966</title>
<path fill="none" stroke="black" d="M835,-271.384C835,-254.994 835,-229.742 835,-208.86"/>
<polygon fill="black" stroke="black" points="838.5,-208.713 835,-198.714 831.5,-208.714 838.5,-208.713"/>
</g>
<!-- LDA_z -->
<g id="node15" class="node"><title>LDA_z</title>
<path fill="none" stroke="black" d="M924,-149.5C924,-149.5 996,-149.5 996,-149.5 1002,-149.5 1008,-155.5 1008,-161.5 1008,-161.5 1008,-181.5 1008,-181.5 1008,-187.5 1002,-193.5 996,-193.5 996,-193.5 924,-193.5 924,-193.5 918,-193.5 912,-187.5 912,-181.5 912,-181.5 912,-161.5 912,-161.5 912,-155.5 918,-149.5 924,-149.5"/>
<text text-anchor="start" x="929.628" y="-178.3" font-family="Times,serif" font-size="14.00">z ∈ {1..K}</text>
<polyline fill="none" stroke="black" points="912,-171.5 1008,-171.5 "/>
<text text-anchor="start" x="919.907" y="-156.3" font-family="Times,serif" font-size="14.00">Categorical(</text>
<text text-anchor="start" x="988.607" y="-157.3" font-family="Times,serif" font-weight="bold" font-size="14.00">θ</text>
<text text-anchor="start" x="995.669" y="-156.3" font-family="Times,serif" font-size="14.00">)</text>
</g>
<!-- LDA__952&#45;&gt;LDA_z -->
<g id="edge10" class="edge"><title>LDA__952&#45;&gt;LDA_z</title>
<path fill="none" stroke="black" d="M966.98,-262.467C965.637,-245.157 963.866,-222.322 962.443,-203.99"/>
<polygon fill="black" stroke="black" points="965.915,-203.491 961.652,-193.792 958.936,-204.033 965.915,-203.491"/>
</g>
<!-- LDA_w -->
<g id="node16" class="node"><title>LDA_w</title>
<path fill="lightgrey" stroke="black" d="M920,-32.5C920,-32.5 998,-32.5 998,-32.5 1004,-32.5 1010,-38.5 1010,-44.5 1010,-44.5 1010,-74.5 1010,-74.5 1010,-80.5 1004,-86.5 998,-86.5 998,-86.5 920,-86.5 920,-86.5 914,-86.5 908,-80.5 908,-74.5 908,-74.5 908,-44.5 908,-44.5 908,-38.5 914,-32.5 920,-32.5"/>
<text text-anchor="start" x="926.68" y="-71.3" font-family="Times,serif" font-size="14.00">w ∈ {1..V}</text>
<polyline fill="none" stroke="black" points="908,-64.5 1010,-64.5 "/>
<text text-anchor="start" x="915.907" y="-44.3" font-family="Times,serif" font-size="14.00">Categorical(</text>
<text text-anchor="start" x="984.831" y="-45.3" font-family="Times,serif" font-weight="bold" font-size="14.00">φ</text>
<text text-anchor="start" x="994.25" y="-49.3" font-family="Times,serif" font-size="14.00"> </text>
<text text-anchor="start" x="993.781" y="-38.5" font-family="Times,serif" font-size="10.00">z</text>
<text text-anchor="start" x="997.669" y="-44.3" font-family="Times,serif" font-size="14.00">)</text>
</g>
<!-- LDA_z&#45;&gt;LDA_w -->
<g id="edge12" class="edge"><title>LDA_z&#45;&gt;LDA_w</title>
<path fill="none" stroke="black" d="M959.807,-149.291C959.673,-134.504 959.49,-114.398 959.332,-97.0577"/>
<polygon fill="black" stroke="black" points="962.829,-96.6583 959.238,-86.6905 955.829,-96.722 962.829,-96.6583"/>
</g>
<!-- LDA__966&#45;&gt;LDA_w -->
<g id="edge11" class="edge"><title>LDA__966&#45;&gt;LDA_w</title>
<path fill="none" stroke="black" d="M864.386,-144.432C881.557,-129.2 903.392,-109.829 921.759,-93.536"/>
<polygon fill="black" stroke="black" points="924.237,-96.017 929.395,-86.7626 919.592,-90.7805 924.237,-96.017"/>
</g>
<!-- LDA_NOTE -->
<g id="node18" class="node"><title>LDA_NOTE</title>
<polygon fill="none" stroke="black" points="944.88,-433 705.12,-433 705.12,-355 950.88,-355 950.88,-427 944.88,-433"/>
<polyline fill="none" stroke="black" points="944.88,-433 944.88,-427 "/>
<polyline fill="none" stroke="black" points="950.88,-427 944.88,-427 "/>
<text text-anchor="start" x="713.31" y="-417.8" font-family="Times,serif" font-size="14.00">K: Number of topics</text>
<text text-anchor="start" x="713.31" y="-403.8" font-family="Times,serif" font-size="14.00">V: Number of vocabularies</text>
<text text-anchor="start" x="713.31" y="-389.8" font-family="Times,serif" font-size="14.00">D: Number of documents</text>
<text text-anchor="start" x="713.31" y="-375.8" font-family="Times,serif" font-size="14.00">N: Number of words for each documents</text>
<text text-anchor="start" x="713.31" y="-361.8" font-family="Times,serif" font-size="14.00">z: Hidden topic for each word</text>
</g>
</g>
</svg>
